<?xml version="1.0" encoding="UTF-8"?>
<svg xmlns="http://www.w3.org/2000/svg" version="1.1" viewBox="0 0 1024 1024">
  <!-- Generator: Adobe Illustrator 30.0.0, SVG Export Plug-In . SVG Version: 2.1.1 Build 123)  -->
  <defs>
    <style>
      .st0 {
        stroke-width: 3px;
      }

      .st0, .st1, .st2 {
        fill: #ca834c;
        stroke: #8b5e3c;
        stroke-miterlimit: 10;
      }

      .st1 {
        stroke-width: 5px;
      }

      .st3 {
        fill: #fee1c9;
      }

      .st2 {
        stroke-width: 4px;
      }
    </style>
  </defs>
  <g id="Layer_2">
    <rect class="st3" width="1027.66" height="1027.66"/>
  </g>
  <g id="Layer_1">
    <text/>
    <text/>
    <path class="st1" d="M125.43,92.17L54.5,232.03l189.9,96.32,72.52-142.98-12.51-6.35,6.13-14.3s-45.98-30.63-88.12-28.4c0,0-1.49-21.43-75.44-55.62l-8.67,17.51-12.89-6.03Z"/>
    <path class="st1" d="M147.02,81.73l-72.75,147.09c10.92-3.47,83.94,38.14,77.37,48.17,0,0,51.02,8.17,84.34,33.04l74.6-144.27s-52.82-35.13-88.12-28.4c0,0-11.32-30.5-75.44-55.62"/>
    <line class="st1" x1="151.63" y1="276.98" x2="222.42" y2="136.31"/>
    <path class="st1" d="M226.64,169.02s38.19,1.16,53.89,22.22"/>
    <path class="st1" d="M205.12,208.39s38.19,1.16,53.89,22.22"/>
    <path class="st1" d="M183.49,243.36s38.19,1.16,53.89,22.22"/>
    <path class="st1" d="M194.28,154.78s-23.5-30.13-49.76-30.35"/>
    <path class="st1" d="M175.23,195.39s-23.5-30.13-49.76-30.35"/>
    <path class="st1" d="M159.79,233.51s-23.5-30.13-49.76-30.35"/>
    <path class="st1" d="M631.64,729.95l-72.06,142.07,192.91,97.84,73.67-145.25-12.71-6.45,6.23-14.53s-46.71-31.11-89.51-28.85c0,0-1.51-21.77-76.63-56.5l-8.8,17.79-13.09-6.12Z"/>
    <path class="st1" d="M653.57,719.34l-73.91,149.41c11.1-3.52,85.27,38.74,78.59,48.93,0,0,51.82,8.3,85.67,33.56l75.78-146.55s-53.65-35.68-89.51-28.85c0,0-11.5-30.98-76.63-56.5"/>
    <line class="st1" x1="658.25" y1="917.68" x2="730.16" y2="774.79"/>
    <path class="st1" d="M734.44,808.02s38.8,1.18,54.74,22.57"/>
    <path class="st1" d="M712.58,848.01s38.8,1.18,54.74,22.57"/>
    <path class="st1" d="M690.61,883.53s38.8,1.18,54.74,22.57"/>
    <path class="st1" d="M701.57,793.55s-23.87-30.61-50.55-30.83"/>
    <path class="st1" d="M682.22,834.8s-23.87-30.61-50.55-30.83"/>
    <path class="st1" d="M666.54,873.52s-23.87-30.61-50.55-30.83"/>
    <path class="st1" d="M730.47,460.68l45.1,137.93,187.28-61.23-46.1-141.01-12.34,4.03-5.35-13.37s-50.12,10.05-76.24,39.07c0,0-15-13.05-85.75,12.97l5.79,17.13-12.38,4.49Z"/>
    <path class="st1" d="M737.76,439.72l48.64,143.85c4.88-9.42,79.88-29.97,82.14-19.11,0,0,38.73-28.04,76.8-33.57l-45.59-143.21s-57.54,11.58-76.24,39.07c0,0-27.36-12.55-85.75,12.97"/>
    <line class="st1" x1="868.54" y1="564.46" x2="822.82" y2="426.1"/>
    <path class="st1" d="M846.98,444.74s25.75-24.23,49.8-20.72"/>
    <path class="st1" d="M858.66,484.58s25.75-24.23,49.8-20.72"/>
    <path class="st1" d="M867.38,521.62s25.75-24.23,49.8-20.72"/>
    <path class="st1" d="M816.48,456.59s-35.09-4.34-52.42,12.7"/>
    <path class="st1" d="M830.59,495.63s-35.09-4.34-52.42,12.7"/>
    <path class="st1" d="M845.43,530.67s-35.09-4.34-52.42,12.7"/>
    <g>
      <path class="st0" d="M606.96,181.61l-15.21-29.89,25.82-12.1c1.57-.74,3.44-.08,4.2,1.48l11.22,22.91c.86,1.76.16,3.89-1.57,4.8l-24.45,12.8Z"/>
      <polygon class="st0" points="383.42 271.73 444.71 260.14 592.24 188.73 586.6 182.9 442.4 254.62 444.1 257.66 411.41 263.9 406.74 256.1 432.21 234.06 433.9 237.16 577.36 165.26 577.56 158.15 431.53 230.03 383.42 271.73"/>
      <polygon class="st0" points="442.19 250.41 436.37 239.63 581.64 168.28 587.57 178.73 442.19 250.41"/>
      <polygon class="st0" points="603.53 182.76 595.07 186.97 580.04 157.46 588.49 153.44 603.53 182.76"/>
    </g>
    <g>
      <path class="st0" d="M142.87,724.17l-29.32,30.26-24.9-25.75c-1.51-1.57-1.49-4.06.05-5.6l22.66-22.67c1.74-1.74,4.56-1.78,6.35-.09l25.17,23.85Z"/>
      <polygon class="st0" points="341.06 953.11 302.31 885 157.33 738.76 152.7 747.84 296.69 890 299.61 886.73 320.35 923.03 312.98 931.77 276.4 910.48 279.41 907.2 135.49 766 126.96 768.67 271.9 912.93 341.06 953.11"/>
      <polygon class="st0" points="291.78 891.95 281.34 903.26 137.33 759.69 147.34 748.38 291.78 891.95"/>
      <polygon class="st0" points="145.62 727.77 154.08 736.12 125.13 766 116.91 757.6 145.62 727.77"/>
    </g>
    <path class="st2" d="M408.58,382.01c-89.13,0-161.37,72.25-161.37,161.36s72.24,161.36,161.37,161.36,161.36-72.24,161.36-161.36-72.24-161.36-161.36-161.36ZM502.38,643.38l-15.79-17.64c-.75-.85-2.06-.92-2.9-.17l-4.27,3.82c-.84.76-.91,2.06-.16,2.9l15.71,17.56c-22.75,18.49-51.53,29.83-82.93,30.61v-23.41c0-1.12-.92-2.05-2.05-2.05h-5.73c-1.13,0-2.05.93-2.05,2.05v23.3c-29.43-1.34-56.45-11.97-78.19-29.02l16.38-20.69c.7-.89.55-2.18-.33-2.89l-4.49-3.55c-.89-.7-2.18-.55-2.89.33l-16.19,20.45c-26.53-24.06-43.6-58.36-44.95-96.67h23.35c1.13,0,2.06-.92,2.06-2.05v-5.73c0-1.13-.93-2.05-2.06-2.05h-23.35c1.27-36.26,16.62-68.94,40.76-92.75l15.35,17.15c.75.84,2.06.91,2.9.16l4.27-3.82c.84-.75.91-2.06.16-2.9l-15.42-17.23c22.45-19.19,51.16-31.25,82.64-32.68v23.3c0,1.13.92,2.05,2.05,2.05h5.73c1.13,0,2.05-.92,2.05-2.05v-23.41c27.58.69,53.13,9.52,74.36,24.17l-12.55,15.85c-.7.88-.55,2.18.33,2.88l4.49,3.56c.89.7,2.18.55,2.89-.34l12.73-16.07c30.15,24.19,49.87,60.84,51.31,102.13h-23.35c-1.13,0-2.06.92-2.06,2.05v5.73c0,1.13.93,2.05,2.06,2.05h23.35c-1.32,37.47-17.68,71.11-43.22,95.07Z"/>
    <path class="st2" d="M466.42,510.92c0,1.39-.64,2.76-1.84,3.63l-32.5,23.53c1,2.67,1.54,5.57,1.54,8.59,0,13.61-11.04,24.64-24.64,24.64s-24.64-11.03-24.64-24.64c0-10.98,7.18-20.28,17.11-23.46v-53.61c0-3.8,3.1-6.91,6.9-6.91,1.9,0,3.63.78,4.87,2.03,1.26,1.25,2.03,2.98,2.03,4.88v53.24c4.8,1.25,9.03,3.93,12.22,7.55l31.88-23.07c1.98-1.44,4.79-.99,6.23,1,.57.78.84,1.7.84,2.6Z"/>
    <path class="st2" d="M933.76,258.08c21.31-56.99-7.61-120.45-64.58-141.75-56.98-21.31-120.44,7.61-141.75,64.59-21.31,56.98,7.61,120.44,64.59,141.75,56.97,21.31,120.44-7.61,141.75-64.59ZM744.22,255.56l15.05-5.88c.72-.28,1.08-1.1.8-1.81l-1.42-3.64c-.29-.72-1.1-1.07-1.82-.8l-14.98,5.85c-6.38-18.97-6.75-40.08.26-60.34l14.97,5.6c.72.27,1.53-.1,1.8-.82l1.37-3.66c.27-.72-.1-1.53-.82-1.8l-14.9-5.57c7.89-18.5,21.15-33.23,37.25-43.05l9.31,15.42c.4.66,1.26.87,1.93.48l3.34-2.02c.66-.4.87-1.26.48-1.93l-9.2-15.24c21.73-11.21,47.74-13.92,72.55-5.63l-5.58,14.93c-.27.72.1,1.54.82,1.81l3.66,1.37c.72.27,1.53-.1,1.8-.83l5.58-14.93c22.88,9.48,40.1,27.11,49.55,48.24l-14.63,5.71c-.72.28-1.07,1.1-.8,1.82l1.42,3.64c.28.72,1.1,1.07,1.82.8l14.7-5.74c6.9,18.94,7.75,40.18,1.14,60.65l-14.9-5.57c-.72-.27-1.53.1-1.8.82l-1.37,3.66c-.27.72.1,1.53.82,1.8l14.97,5.6c-7.04,17.47-18.79,31.69-33.23,41.76l-7.13-11.81c-.4-.66-1.26-.87-1.92-.48l-3.35,2.02c-.66.4-.87,1.26-.47,1.93l7.23,11.98c-22.67,13.49-50.82,17.34-77.57,8.39l5.58-14.93c.27-.72-.1-1.54-.82-1.81l-3.66-1.37c-.72-.27-1.53.1-1.8.83l-5.58,14.93c-23.64-9.8-41.24-28.31-50.45-50.36Z"/>
    <path class="st2" d="M837.51,264.24c-.89-.33-1.61-1.07-1.88-2.04l-7.27-26.4c-1.95,0-3.93-.35-5.86-1.07-8.7-3.25-13.11-12.95-9.86-21.64,3.25-8.7,12.94-13.12,21.64-9.86,7.02,2.63,11.25,9.44,10.91,16.55l34.28,12.82c2.43.91,3.68,3.63,2.77,6.06-.45,1.21-1.37,2.13-2.46,2.63-1.1.51-2.39.59-3.61.13l-34.04-12.73c-1.95,2.77-4.67,4.83-7.75,6.01l7.13,25.9c.45,1.61-.51,3.3-2.13,3.74-.63.18-1.29.13-1.86-.08Z"/>
  </g>
</svg>