<?xml version="1.0" encoding="UTF-8"?>
<svg xmlns="http://www.w3.org/2000/svg" version="1.1" xmlns:xlink="http://www.w3.org/1999/xlink" viewBox="0 0 1024 1024">
  <!-- Generator: Adobe Illustrator 29.8.3, SVG Export Plug-In . SVG Version: 2.1.1 Build 3)  -->
  <defs>
    <style>
      .st0 {
        opacity: .55;
      }

      .st0, .st1, .st2, .st3, .st4, .st5, .st6, .st7, .st8, .st9, .st10, .st11, .st12 {
        stroke-miterlimit: 10;
        stroke-width: 20px;
      }

      .st0, .st1, .st3, .st5, .st6, .st7, .st8, .st9, .st10, .st12 {
        fill: none;
      }

      .st0, .st1, .st6, .st8, .st9, .st11 {
        stroke: #051f3e;
      }

      .st1, .st7 {
        opacity: .8;
      }

      .st2 {
        fill: #1c395e;
        stroke: #1c395e;
      }

      .st13 {
        fill: #fff;
      }

      .st3, .st5, .st7, .st10, .st12 {
        stroke: #231f20;
      }

      .st14 {
        fill: url(#linear-gradient1);
      }

      .st4 {
        fill: #112b4b;
        stroke: #112b4b;
      }

      .st5, .st6 {
        opacity: .7;
      }

      .st8 {
        opacity: .4;
      }

      .st9 {
        opacity: .95;
      }

      .st10 {
        opacity: .5;
      }

      .st15 {
        display: none;
        fill: url(#linear-gradient2);
      }

      .st16 {
        fill: url(#linear-gradient3);
      }

      .st11 {
        fill: #051f3e;
      }

      .st12 {
        opacity: .6;
      }

      .st17 {
        fill: url(#linear-gradient);
      }
    </style>
    <linearGradient id="linear-gradient" x1="512" y1="94.28" x2="512" y2="929.72" gradientUnits="userSpaceOnUse">
      <stop offset="0" stop-color="#20c4f4"/>
      <stop offset="1" stop-color="#5f6db3"/>
    </linearGradient>
    <linearGradient id="linear-gradient1" x1="512" y1="-1081.54" x2="512" y2="-246.09" xlink:href="#linear-gradient"/>
    <linearGradient id="linear-gradient2" x1="-766.21" y1="-1081.54" x2="-766.21" y2="-246.09" xlink:href="#linear-gradient"/>
    <linearGradient id="linear-gradient3" x1="663.31" y1="499.47" x2="640.34" y2="681.49" gradientTransform="translate(-68.87 81.85) rotate(-7.19)" gradientUnits="userSpaceOnUse">
      <stop offset="0" stop-color="#febc17"/>
      <stop offset="1" stop-color="#f36c27"/>
    </linearGradient>
  </defs>
  <g id="back">
    <circle class="st13" cx="518.42" cy="612.24" r="234.08"/>
  </g>
  <g id="Triang">
    <g id="Layer_3">
      <line class="st3" x1="700.15" y1="389.29" x2="323.58" y2="385.54"/>
      <line class="st3" x1="700.15" y1="-786.53" x2="323.58" y2="-790.28"/>
      <g>
        <line class="st0" x1="312.43" y1="-548.88" x2="717.8" y2="-544.84"/>
        <line class="st6" x1="248.03" y1="-476.13" x2="743.64" y2="-471.19"/>
        <line class="st1" x1="290.08" y1="-388.97" x2="775.97" y2="-384.13"/>
        <polyline class="st9" points="336.81 -295.33 444.51 -294.26 621.29 -292.49 728.99 -291.42"/>
        <polyline class="st8" points="720.55 -590.93 624.29 -591.89 354.1 -594.58 271.44 -595.4"/>
      </g>
      <line class="st3" x1="-1014.11" y1="-552.49" x2="-546.52" y2="-547.83"/>
      <line class="st3" x1="-1059.67" y1="-481.01" x2="-487.99" y2="-475.31"/>
      <line class="st3" x1="-1033.22" y1="-403.55" x2="-472.75" y2="-397.96"/>
      <line class="st3" x1="-578.06" y1="-786.53" x2="-954.63" y2="-790.28"/>
      <polyline class="st3" points="-1028.42 -707.02 -904.18 -705.79 -700.27 -703.75 -576.03 -702.52"/>
      <polyline class="st3" points="-536.12 -624.93 -647.16 -626.03 -958.83 -629.14 -1054.18 -630.09"/>
      <line class="st3" x1="-1431.51" y1="-1809.24" x2="-1026.15" y2="-1805.2"/>
      <line class="st3" x1="-1495.91" y1="-1736.49" x2="-1000.3" y2="-1731.55"/>
      <line class="st3" x1="-1453.86" y1="-1649.34" x2="-967.98" y2="-1644.49"/>
      <polyline class="st3" points="-1407.14 -1555.69 -1299.43 -1554.62 -1122.65 -1552.86 -1014.95 -1551.78"/>
      <polyline class="st3" points="-1023.39 -1851.29 -1119.65 -1852.25 -1389.85 -1854.94 -1472.51 -1855.76"/>
      <line class="st12" x1="-1289.76" y1="-1414.26" x2="-884.4" y2="-1410.22"/>
      <line class="st5" x1="-1354.16" y1="-1341.51" x2="-858.55" y2="-1336.57"/>
      <line class="st7" x1="-1312.11" y1="-1254.35" x2="-826.23" y2="-1249.51"/>
      <polyline class="st3" points="-1265.38 -1160.71 -1157.68 -1159.64 -980.9 -1157.87 -873.2 -1156.8"/>
      <polyline class="st10" points="-881.64 -1456.31 -977.9 -1457.27 -1248.1 -1459.96 -1330.75 -1460.78"/>
      <g>
        <circle class="st11" cx="508.35" cy="544.41" r="61.29"/>
        <path class="st11" d="M696.21,836.51c0-39.74-12.54-76.54-33.89-106.68-33.47-47.25-88.58-78.09-150.88-78.09s-116.8,30.5-150.31,77.3c-21.69,30.28-34.46,67.38-34.46,107.47,0,21.14,3.55,41.45,10.09,60.37h349.35c6.54-18.92,10.09-39.23,10.09-60.37Z"/>
      </g>
    </g>
    <path class="st17" d="M980.88,859.73L552.41,117.61c-17.96-31.11-62.86-31.11-80.82,0L43.12,859.73c-17.96,31.11,4.5,69.99,40.42,69.99h856.92c35.92,0,58.38-38.88,40.42-69.99ZM662.32,729.83c-33.38,47.02-88.27,77.7-150.32,77.7s-117.55-31.02-150.87-78.49c-21.01-29.92-33.34-66.38-33.34-105.72,0-101.74,82.47-184.21,184.21-184.21s184.21,82.47,184.21,184.21c0,39.69-12.55,76.44-33.89,106.51Z"/>
    <path class="st14" d="M980.88-316.08l-428.47-742.12c-17.96-31.11-62.86-31.11-80.82,0L43.12-316.08c-17.96,31.11,4.5,69.99,40.42,69.99h856.92c35.92,0,58.38-38.88,40.42-69.99ZM512-368.28c-101.74,0-184.21-82.47-184.21-184.21s82.47-184.21,184.21-184.21,184.21,82.47,184.21,184.21-82.47,184.21-184.21,184.21Z"/>
    <path class="st15" d="M-297.33-316.08l-428.47-742.12c-17.96-31.11-62.86-31.11-80.82,0l-428.47,742.12c-17.96,31.11,4.5,69.99,40.42,69.99H-337.75c35.92,0,58.38-38.88,40.42-69.99ZM-766.21-368.28c-101.74,0-184.21-82.47-184.21-184.21s82.47-184.21,184.21-184.21,184.21,82.47,184.21,184.21-82.47,184.21-184.21,184.21Z"/>
    <g id="Layer_4">
      <g id="Layer_6">
        <polygon class="st16" points="628.28 494.34 638.07 651.99 659.55 677.8 675.24 640.78 628.28 494.34"/>
      </g>
      <ellipse class="st4" cx="526.98" cy="489.66" rx="32.74" ry="59.44" transform="translate(-103.11 836.73) rotate(-71.74)"/>
      <path class="st2" d="M534.31,501.2l-97.13-61.18c-.06-.04-.04-.14.04-.14l110.38-5.41s.03,0,.05.01l87.86,58.33c.06.04.04.13-.04.14l-101.11,8.26s-.03,0-.05-.01Z"/>
    </g>
  </g>
</svg>