<?xml version="1.0" encoding="UTF-8"?>
<svg xmlns="http://www.w3.org/2000/svg" version="1.1" viewBox="0 0 1024 1024">
  <!-- Generator: Adobe Illustrator 30.0.0, SVG Export Plug-In . SVG Version: 2.1.1 Build 123)  -->
  <defs>
    <style>
      .st0 {
        fill: none;
      }

      .st0, .st1 {
        stroke: #a7a9ac;
      }

      .st0, .st1, .st2 {
        stroke-miterlimit: 10;
        stroke-width: 10px;
      }

      .st1 {
        fill: #e6e7e8;
      }

      .st3 {
        fill: #1c75bc;
      }

      .st2 {
        fill: #6d6e71;
        stroke: #414042;
      }

      .st4 {
        fill: #be1e2d;
      }

      .st5 {
        fill: #414042;
      }
    </style>
  </defs>
  <g id="top">
    <g>
      <rect class="st2" x="562.54" y="174.28" width="116.31" height="27.33" transform="translate(262.89 -352.94) rotate(39.67)"/>
      <g>
        <path class="st2" d="M777.64,370.22l-1.36,1.38c-19.68,16.41-114.91-33.83-216.37-114.68-101.35-80.75-171.55-162.26-160.14-185.22l1.08-1.71c16.19-20.33,113.68,30.4,217.72,113.3,104.05,82.91,175.26,166.59,159.07,186.92Z"/>
        <path class="st2" d="M758.3,399.11l-1.36,1.38c-19.68,16.41-114.91-33.83-216.37-114.68-101.35-80.75-171.55-162.26-160.14-185.22l1.08-1.71c16.19-20.33,113.68,30.4,217.72,113.3,104.05,82.91,175.26,166.59,159.07,186.92Z"/>
      </g>
    </g>
  </g>
  <g id="Layer_1">
    <g>
      <path class="st2" d="M714.45,404.45l-.19,1.83c-4.91,23.86-105.45,42.91-228.76,42.91s-223.62-19.01-228.74-42.83l-.21-1.91c0-24.7,102.51-44.73,228.95-44.73s228.95,20.03,228.95,44.73Z"/>
      <path class="st2" d="M256.55,404.45l.21,1.91c-.14-.63-.21-1.27-.21-1.91Z"/>
    </g>
    <g id="paper">
      <rect class="st1" x="350.98" y="240.06" width="287.12" height="406.75" rx="12" ry="12" transform="translate(-75.48 102.44) rotate(-10.99)"/>
      <circle class="st4" cx="380.97" cy="326.54" r="26.07"/>
      <rect class="st0" x="431.05" y="300.45" width="152.61" height="3.07" transform="translate(-48.28 102.29) rotate(-10.99)"/>
      <circle class="st3" cx="395.36" cy="402.21" r="26.07"/>
      <rect class="st0" x="445.45" y="376.13" width="152.61" height="3.07" transform="translate(-62.44 106.43) rotate(-10.99)"/>
    </g>
    <g id="Layer_2">
      <path class="st2" d="M714.25,406.36l-51.57,490.28c0,18.64-78.74,33.75-175.87,33.75s-175.88-15.11-175.88-33.75l-54.18-490.2c5.12,23.82,105.58,42.83,228.74,42.83s223.85-19.05,228.76-42.91Z"/>
      <ellipse class="st5" cx="588.79" cy="692.02" rx="210.48" ry="11.39" transform="translate(-153.23 1216.41) rotate(-84.86)"/>
      <ellipse class="st5" cx="376.35" cy="689.97" rx="11.39" ry="210.48" transform="translate(-60.34 36.52) rotate(-5.14)"/>
      <ellipse class="st5" cx="484.27" cy="701.26" rx="189.26" ry="10.24" transform="translate(-218.86 1182.81) rotate(-89.78)"/>
    </g>
  </g>
</svg>